HIERARCHY
ROOT Hips
{
	OFFSET -32.860001 56.121803 44.745396
	CHANNELS 6 Xposition Yposition Zposition Zrotation Xrotation Yrotation
	JOINT Chest
	{
		OFFSET -0.637402 0.831600 5.390099
		CHANNELS 6 Xposition Yposition Zposition Zrotation Xrotation Yrotation
		JOINT Chest2
		{
			OFFSET 0.000000 0.000000 4.429901
			CHANNELS 6 Xposition Yposition Zposition Zrotation Xrotation Yrotation
			JOINT Neck
			{
				OFFSET 0.000000 0.000000 10.301395
				CHANNELS 6 Xposition Yposition Zposition Zrotation Xrotation Yrotation
				JOINT Head
				{
					OFFSET 0.000000 0.000000 2.173897
					CHANNELS 6 Xposition Yposition Zposition Zrotation Xrotation Yrotation
					End Site
					{
						OFFSET 0.000000 0.000000 8.298004
					}
				}
			}
			JOINT LeftCollar
			{
				OFFSET 2.142401 -0.572701 5.717800
				CHANNELS 6 Xposition Yposition Zposition Zrotation Xrotation Yrotation
				JOINT LeftShoulder
				{
					OFFSET 5.674000 0.000000 0.000000
					CHANNELS 6 Xposition Yposition Zposition Zrotation Xrotation Yrotation
					JOINT LeftElbow
					{
						OFFSET 0.000000 0.000000 -12.238701
						CHANNELS 6 Xposition Yposition Zposition Zrotation Xrotation Yrotation
						JOINT LeftWrist
						{
							OFFSET 0.000000 0.000000 -10.253700
							CHANNELS 6 Xposition Yposition Zposition Zrotation Xrotation Yrotation
							End Site
							{
								OFFSET 0.000000 0.000000 -2.173901
							}
						}
					}
				}
			}
			JOINT RightCollar
			{
				OFFSET -2.882599 -1.580101 6.695801
				CHANNELS 6 Xposition Yposition Zposition Zrotation Xrotation Yrotation
				JOINT RightShoulder
				{
					OFFSET -4.235600 0.000000 0.000000
					CHANNELS 6 Xposition Yposition Zposition Zrotation Xrotation Yrotation
					JOINT RightElbow
					{
						OFFSET 0.000000 0.000000 -10.709900
						CHANNELS 6 Xposition Yposition Zposition Zrotation Xrotation Yrotation
						JOINT RightWrist
						{
							OFFSET 0.000000 0.000000 -11.716801
							CHANNELS 6 Xposition Yposition Zposition Zrotation Xrotation Yrotation
							End Site
							{
								OFFSET 0.000000 0.000000 -2.173901
							}
						}
					}
				}
			}
		}
	}
	JOINT LeftHip
	{
		OFFSET 2.279499 0.210400 -2.475502
		CHANNELS 6 Xposition Yposition Zposition Zrotation Xrotation Yrotation
		JOINT LeftKnee
		{
			OFFSET 0.000000 -0.000004 -20.742800
			CHANNELS 6 Xposition Yposition Zposition Zrotation Xrotation Yrotation
			JOINT LeftAnkle
			{
				OFFSET 0.000000 0.000000 -16.666000
				CHANNELS 6 Xposition Yposition Zposition Zrotation Xrotation Yrotation
				End Site
				{
					OFFSET 0.000000 -8.310898 0.000000
				}
			}
		}
	}
	JOINT RightHip
	{
		OFFSET -1.961899 0.232300 -2.727402
		CHANNELS 6 Xposition Yposition Zposition Zrotation Xrotation Yrotation
		JOINT RightKnee
		{
			OFFSET 0.000000 -0.000004 -20.526800
			CHANNELS 6 Xposition Yposition Zposition Zrotation Xrotation Yrotation
			JOINT RightAnkle
			{
				OFFSET 0.000000 0.000000 -16.867300
				CHANNELS 6 Xposition Yposition Zposition Zrotation Xrotation Yrotation
				End Site
				{
					OFFSET 0.000000 -7.186401 0.000000
				}
			}
		}
	}
}
MOTION
Frames: 6
Frame Time: 0.041667
70.512909 72.754898 23.572691 -33.545928 -13.368985 14.633247 -0.637413 0.831605 5.390101 9.786692 25.938690 7.733562 -0.000007 0.000004 4.429903 -7.182400 -5.637341 -0.249855 -0.000008 -0.000011 10.301394 393.356605 31.869669 -22.259911 0.000004 -0.000011 2.173898 -357.002896 11.371661 7.802662 2.142403 -0.572697 5.717805 -6.989568 6.716303 8.929643 5.674002 0.000010 -0.000003 146.681140 149.990695 134.873942 -0.000001 -0.000003 -12.238695 -271.771233 -181.945557 -175.770656 0.000007 0.000000 -10.253702 -111.549106 11.674421 -7.017558 -2.882596 -1.580103 6.695804 -7.338768 -2.998065 -17.816041 -4.235605 0.000001 -0.000001 21.292080 -3.112165 81.081947 -0.000003 -0.000001 -10.709896 -47.333371 -29.655011 -40.688106 0.000002 0.000006 -11.716805 57.022394 -32.166827 0.933066 2.279490 0.210392 -2.475503 77.301882 -62.802128 56.326367 0.000000 -0.000001 -20.742804 -142.774805 -13.431389 137.465384 0.000001 -0.000007 -16.666008 89.509718 1.706659 52.711452 -1.961910 0.232303 -2.727398 -137.779478 -25.511959 -47.842736 0.000005 -0.000005 -20.526804 205.051131 -7.398701 -125.729562 0.000001 -0.000004 -16.867294 -69.184830 3.368597 -32.051612
70.175705 72.447395 23.394188 -31.960678 -14.990365 15.657630 -0.637396 0.831601 5.390098 9.201102 24.858748 8.493422 0.000003 -0.000004 4.429899 -6.744238 -5.567536 -0.397874 -0.000013 -0.000007 10.301393 397.874666 29.497278 -24.281505 -0.000005 -0.000003 2.173892 -356.921207 11.862378 8.337336 2.142391 -0.572693 5.717807 -4.897636 5.450581 8.917710 5.674000 0.000021 0.000006 151.147879 150.505185 132.875374 0.000005 -0.000009 -12.238694 -99.328019 -180.728745 -183.561361 -0.000002 0.000000 -10.253699 69.326140 11.528129 -3.228381 -2.882616 -1.580087 6.695800 -8.199817 -4.014157 -16.457039 -4.235609 -0.000001 0.000003 16.605650 0.890153 81.502482 0.000005 0.000002 -10.709896 -43.339944 -29.565840 -37.831451 -0.000003 0.000005 -11.716810 86.414010 -13.426198 22.448781 2.279507 0.210405 -2.475503 75.338394 -62.731176 53.635843 -0.000004 -0.000005 -20.742802 -143.437251 -13.911973 138.462947 -0.000006 -0.000005 -16.666002 88.858227 1.756573 52.678688 -1.961889 0.232303 -2.727394 -141.481058 -24.125910 -46.693270 0.000005 -0.000006 -20.526806 208.358377 -10.109425 -125.741051 -0.000007 0.000001 -16.867300 -70.698366 3.585784 -32.973937
69.770912 72.159691 23.247585 -30.422465 -16.513914 16.656885 -0.637406 0.831593 5.390100 32.992778 26.434347 0.221484 0.000007 0.000002 4.429901 -28.724173 -5.874620 -1.902011 0.000006 -0.000019 10.301398 402.561350 26.479132 -26.301317 -0.000001 -0.000006 2.173893 -356.751955 12.289637 8.667412 2.142395 -0.572703 5.717810 -2.642097 4.171655 8.406921 5.673994 0.000002 -0.000002 155.147228 150.983982 130.936393 0.000012 -0.000018 -12.238702 -106.665971 -181.120798 -182.411868 0.000007 -0.000009 -10.253702 69.946567 11.649058 -1.561392 -2.882605 -1.580098 6.695800 -9.041626 -4.470981 -14.580101 -4.235600 -0.000006 0.000002 12.766256 4.666773 81.346706 0.000003 0.000006 -10.709900 -40.100242 -29.190688 -34.890037 0.000002 0.000003 -11.716802 97.660094 4.505450 31.762063 2.279508 0.210399 -2.475507 78.988815 -60.653835 55.333384 -0.000008 0.000001 -20.742802 -146.295535 -15.916890 139.392126 -0.000005 0.000002 -16.665998 89.033736 2.035613 52.738199 -1.961898 0.232296 -2.727392 -143.132392 -24.225557 -44.734795 0.000005 0.000006 -20.526808 210.150372 -11.447258 -125.713634 0.000000 -0.000002 -16.867300 -71.461346 3.926681 -33.460021
69.385605 71.859497 23.145185 -28.958776 -17.941191 17.618666 -0.637402 0.831593 5.390091 31.877408 25.528720 1.504487 -0.000005 -0.000004 4.429903 -28.020066 -5.740967 -1.869237 -0.000001 -0.000010 10.301385 407.016136 23.327147 -27.805178 -0.000015 -0.000001 2.173903 -356.662534 12.402667 8.960284 2.142406 -0.572711 5.717794 -0.424791 2.777027 7.856708 5.673991 0.000013 -0.000004 158.558074 151.289810 129.204585 -0.000004 -0.000000 -12.238702 -113.452536 -181.137368 -181.077385 -0.000002 -0.000009 -10.253696 70.502736 11.061937 -0.522287 -2.882598 -1.580106 6.695791 -9.949435 -5.058654 -12.160875 -4.235605 -0.000006 0.000002 9.159615 4.773057 81.002178 -0.000004 -0.000014 -10.709906 -33.610787 -28.438823 -32.021358 -0.000005 -0.000003 -11.716806 98.981496 12.192951 37.050658 2.279493 0.210408 -2.475506 82.822819 -58.341782 57.078883 -0.000009 -0.000010 -20.742805 -149.298878 -17.953081 140.273152 -0.000004 0.000004 -16.666010 89.182511 2.225539 52.927238 -1.961902 0.232302 -2.727402 -144.282637 -24.664978 -42.671450 -0.000002 -0.000014 -20.526802 211.536368 -12.557560 -125.579489 0.000003 0.000000 -16.867306 -72.169172 4.215320 -33.908894
69.024109 71.550690 23.079889 -27.583077 -19.287389 18.545379 -0.637413 0.831581 5.390094 31.000801 24.551098 2.666302 -0.000003 -0.000006 4.429905 -27.442658 -5.569426 -1.742496 -0.000001 -0.000013 10.301396 411.197360 19.936141 -28.916453 0.000000 -0.000005 2.173904 -356.709443 12.259799 9.069293 2.142395 -0.572694 5.717806 1.645427 1.427308 7.108655 5.673992 -0.000003 0.000002 161.382713 151.378835 127.644597 -0.000009 0.000002 -12.238702 -119.485144 -180.811787 -179.704271 0.000005 0.000002 -10.253702 70.938994 10.789576 0.600962 -2.882604 -1.580098 6.695794 -8.916155 -5.766234 -9.446135 -4.235598 -0.000014 -0.000003 4.587526 7.062958 80.416243 0.000003 -0.000009 -10.709909 -29.735966 -27.775357 -29.177106 -0.000008 -0.000008 -11.716806 97.280315 15.914127 41.869678 2.279482 0.210396 -2.475502 86.966914 -55.663747 58.964408 0.000004 -0.000009 -20.742802 -152.602504 -20.027424 141.098321 0.000005 -0.000008 -16.665998 89.432386 2.469390 53.086884 -1.961909 0.232288 -2.727400 -144.537499 -25.592230 -40.311438 0.000003 -0.000002 -20.526802 212.241817 -13.296571 -125.341539 0.000010 0.000004 -16.867296 -72.709222 4.479963 -34.270256
68.689804 71.236893 23.044691 -26.299000 -20.565809 19.437822 -0.637397 0.831597 5.390096 30.352842 23.522442 3.702012 0.000003 -0.000003 4.429895 -26.914572 -5.341345 -1.769691 0.000001 -0.000004 10.301398 414.806186 16.548507 -29.329823 0.000000 -0.000007 2.173893 -356.514810 12.111669 9.086887 2.142395 -0.572705 5.717799 3.753755 0.046488 6.398003 5.673998 0.000004 -0.000004 163.371759 151.205512 126.360112 0.000011 -0.000005 -12.238706 -124.807733 -180.230483 -178.398694 0.000009 -0.000000 -10.253705 71.493113 10.449182 1.521309 -2.882602 -1.580090 6.695804 -8.776067 -6.125797 -6.176786 -4.235591 0.000008 -0.000004 1.664400 8.812427 79.309752 0.000010 0.000020 -10.709904 -26.019259 -26.882834 -26.291661 -0.000007 0.000009 -11.716803 94.649271 16.833251 45.570257 2.279509 0.210408 -2.475499 91.195463 -52.732844 60.791088 -0.000009 -0.000008 -20.742804 -156.059960 -22.107524 141.888533 -0.000005 -0.000001 -16.666004 89.780255 2.768629 53.198574 -1.961895 0.232291 -2.727396 -143.184753 -27.246429 -37.314683 0.000004 0.000008 -20.526800 211.833700 -13.319206 -125.032938 -0.000003 -0.000003 -16.867292 -72.796293 4.772395 -34.375840
